<?xml version="1.0" encoding="iso-8859-1"?>
<!-- Generator: Adobe Illustrator 19.0.0, SVG Export Plug-In . SVG Version: 6.00 Build 0)  -->
<svg xmlns="http://www.w3.org/2000/svg" xmlns:xlink="http://www.w3.org/1999/xlink" version="1.1" id="Capa_1" x="0px" y="0px" viewBox="0 0 507.8 507.8" style="enable-background:new 0 0 507.8 507.8;" xml:space="preserve" width="512px" height="512px">
<g>
	<g>
		<path d="M57.1,49.9v163.2h130.6V49.9H57.1z M171.4,196.8H73.5V66.2h97.9V196.8z" fill="#D80027"/>
	</g>
</g>
<g>
	<g>
		<rect x="40.8" y="245.7" width="293.8" height="16.3" fill="#D80027"/>
	</g>
</g>
<g>
	<g>
		<rect x="40.8" y="294.7" width="228.5" height="16.3" fill="#D80027"/>
	</g>
</g>
<g>
	<g>
		<rect x="40.8" y="343.7" width="163.2" height="16.3" fill="#D80027"/>
	</g>
</g>
<g>
	<g>
		<rect x="114.3" y="449.8" width="16.3" height="16.3" fill="#D80027"/>
	</g>
</g>
<g>
	<g>
		<rect x="146.9" y="449.8" width="16.3" height="16.3" fill="#D80027"/>
	</g>
</g>
<g>
	<g>
		<rect x="81.6" y="449.8" width="16.3" height="16.3" fill="#D80027"/>
	</g>
</g>
<g>
	<g>
		<path d="M484.9,266.3l11.5-11.5c12.7-12.7,12.7-33.4,0-46.2c-12.3-12.3-33.8-12.3-46.2,0l-74.9,74.9V136.3L240.1,0.9H0v506h375.4    V375.7l97.9-97.9l11.5,11.5l-46.2,46.2l11.5,11.5l57.7-57.7L484.9,266.3z M244.8,28.8l102.7,102.7H244.8V28.8z M359.1,490.6H16.3    V17.2h212.2v130.6h130.6v151.9l-89.7,89.6l-7.7,53.9l53.9-7.7l43.5-43.5V490.6z M284.4,400.4l20.2,20.2L281,424L284.4,400.4z     M317.6,410.5l-23.1-23.1l144.3-144.3l23.1,23.1L317.6,410.5z M473.4,254.7l-23.1-23.1l11.5-11.5c6.2-6.2,16.9-6.2,23.1,0    c6.4,6.4,6.4,16.7,0,23.1L473.4,254.7z" fill="#D80027"/>
	</g>
</g>
<g>
</g>
<g>
</g>
<g>
</g>
<g>
</g>
<g>
</g>
<g>
</g>
<g>
</g>
<g>
</g>
<g>
</g>
<g>
</g>
<g>
</g>
<g>
</g>
<g>
</g>
<g>
</g>
<g>
</g>
</svg>
